<svg xmlns="http://www.w3.org/2000/svg" width="20" height="16" fill="none" viewBox="0 0 20 16">
  <path fill="#ADADAD" d="M16.683 2.047a16.42 16.42 0 0 0-4.01-1.223.061.061 0 0 0-.066.03c-.172.302-.364.697-.499 1.01a15.246 15.246 0 0 0-4.506 0 10.02 10.02 0 0 0-.506-1.01.063.063 0 0 0-.066-.033 16.407 16.407 0 0 0-4.01 1.225.057.057 0 0 0-.027.023C.438 5.825-.262 9.489.082 13.107a.065.065 0 0 0 .025.045A16.448 16.448 0 0 0 5.028 15.6a.064.064 0 0 0 .069-.021c.38-.508.717-1.047 1.007-1.612a.06.06 0 0 0-.034-.085c-.53-.2-1.044-.441-1.537-.721a.062.062 0 0 1-.03-.05.062.062 0 0 1 .024-.053c.103-.076.206-.156.305-.236a.06.06 0 0 1 .064-.008c3.225 1.449 6.717 1.449 9.904 0a.061.061 0 0 1 .065.007c.098.081.2.16.305.237a.062.062 0 0 1-.005.103c-.49.282-1.002.521-1.538.72a.06.06 0 0 0-.036.035.06.06 0 0 0 .003.051 12.87 12.87 0 0 0 1.005 1.611.063.063 0 0 0 .07.023 16.394 16.394 0 0 0 4.928-2.448.063.063 0 0 0 .026-.044c.41-4.183-.688-7.817-2.914-11.038a.05.05 0 0 0-.026-.023ZM6.586 10.904c-.97 0-1.771-.878-1.771-1.954 0-1.078.785-1.955 1.77-1.955.995 0 1.788.885 1.772 1.955 0 1.077-.785 1.954-1.771 1.954Zm6.548 0c-.97 0-1.77-.878-1.77-1.954 0-1.078.784-1.955 1.77-1.955.994 0 1.787.885 1.772 1.955 0 1.077-.777 1.954-1.772 1.954Z"/>
</svg>
