<svg xmlns="http://www.w3.org/2000/svg" width="25" height="19" fill="none" viewBox="0 0 25 19">
  <path fill="#ADADAD" d="M22.89 11.335c0 6.16-6.76 7.392-10.842 7.392-4.083 0-10.103-2.218-10.103-7.392 0-4.082 3.696-10.35 10.103-10.35 7.146 0 10.842 6.268 10.842 10.35Z"/>
  <path fill="#ADADAD" d="M6.653 3.696a3.696 3.696 0 0 1-3.696 3.696C.916 7.392 0 5.737 0 3.696A3.696 3.696 0 0 1 3.696 0c2.041 0 2.957 1.655 2.957 3.696Zm11.581 0a3.696 3.696 0 0 0 3.696 3.696c2.041 0 2.957-1.655 2.957-3.696A3.696 3.696 0 0 0 21.19 0c-2.042 0-2.957 1.655-2.957 3.696Z"/>
  <path fill="#000" d="M10.109 10.842c-1.015 1.81-2.6 2.456-4.134 1.595-1.535-.86-2.056-2.249-1.04-4.06 1.014-1.81 3.638-3.324 5.173-2.463 1.198.671 1.016 3.118 0 4.928Zm4.318 0c1.014 1.81 2.598 2.456 4.133 1.595 1.535-.86 2.056-2.249 1.041-4.06-1.015-1.81-3.64-3.324-5.174-2.463-1.198.671-1.015 3.118 0 4.928Z"/>
  <path fill="#ADADAD" d="M9.056 9.876c-.538.959-1.377 1.3-2.19.845-.812-.456-1.088-1.19-.55-2.15.537-.958 1.927-1.76 2.74-1.305.634.356.537 1.652 0 2.61Z"/>
  <path fill="#ADADAD" d="M9.056 9.876c-.538.959-1.377 1.3-2.19.845-.812-.456-1.088-1.19-.55-2.15.537-.958 1.927-1.76 2.74-1.305.634.356.537 1.652 0 2.61Zm6.447 0c.537.959 1.376 1.3 2.19.845.812-.456 1.088-1.19.55-2.15-.537-.958-1.927-1.76-2.74-1.305-.634.356-.538 1.652 0 2.61Z"/>
  <path fill="#ADADAD" d="M15.503 9.876c.537.959 1.376 1.3 2.19.845.812-.456 1.088-1.19.55-2.15-.537-.958-1.927-1.76-2.74-1.305-.634.356-.538 1.652 0 2.61Z"/>
  <path fill="#000" d="M11.772 14.216a.74.74 0 0 0 1.095 0l.679-.747a.74.74 0 0 0-.548-1.236h-1.357a.74.74 0 0 0-.547 1.236l.678.747Z"/>
  <path fill="#000" stroke="#000" stroke-width=".116" d="M13.511 15.462c-.63.47-1.56.508-2.148.444-.155-.016-.315.058-.361.206-.264.848.81.742 1.43.565.568-.22 1.5-.708 1.489-1.156-.005-.19-.259-.172-.41-.06Z"/>
</svg>
