<svg xmlns="http://www.w3.org/2000/svg" width="20" height="16" fill="none" viewBox="0 0 20 16">
  <path fill="#ADADAD" d="M19.344 2.62a7.66 7.66 0 0 1-2.197.601 3.835 3.835 0 0 0 1.682-2.117c-.75.446-1.572.76-2.429.928a3.826 3.826 0 0 0-6.518 3.49 10.863 10.863 0 0 1-7.885-3.997 3.826 3.826 0 0 0 1.184 5.107 3.816 3.816 0 0 1-1.732-.479v.05a3.826 3.826 0 0 0 3.069 3.75 3.852 3.852 0 0 1-1.728.066 3.828 3.828 0 0 0 3.573 2.656A7.675 7.675 0 0 1 .7 14.26a10.819 10.819 0 0 0 5.863 1.718c7.037 0 10.884-5.828 10.884-10.883 0-.164-.004-.33-.011-.494a7.775 7.775 0 0 0 1.907-1.98l.002-.002Z"/>
</svg>
