<svg xmlns="http://www.w3.org/2000/svg" width="17" height="17" fill="none" viewBox="0 0 17 17">
  <path fill="#ADADAD" d="M8.787 5.473A2.744 2.744 0 0 0 6.05 8.211a2.744 2.744 0 0 0 2.738 2.739 2.744 2.744 0 0 0 2.738-2.739 2.744 2.744 0 0 0-2.738-2.738ZM17 8.211c0-1.134.01-2.257-.053-3.39-.064-1.314-.364-2.48-1.325-3.442C14.658.416 13.493.118 12.179.054 11.045-.01 9.92.001 8.789.001 7.655 0 6.532-.01 5.4.054 4.086.118 2.92.418 1.958 1.379.994 2.342.696 3.507.632 4.822.568 5.956.58 7.08.58 8.212c0 1.131-.01 2.257.053 3.389.064 1.315.364 2.481 1.325 3.443.964.963 2.128 1.261 3.443 1.325 1.134.063 2.257.053 3.39.053s2.257.01 3.389-.053c1.314-.064 2.481-.364 3.443-1.325.963-.964 1.26-2.128 1.325-3.443.065-1.132.053-2.256.053-3.39Zm-8.213 4.214A4.207 4.207 0 0 1 4.574 8.21a4.207 4.207 0 0 1 4.213-4.213A4.207 4.207 0 0 1 13 8.211a4.207 4.207 0 0 1-4.213 4.214Zm4.386-7.615a.983.983 0 1 1 0-1.968.983.983 0 1 1 0 1.968Z"/>
</svg>
